<mxfile host="Electron" agent="Mozilla/5.0 (Macintosh; Intel Mac OS X 10_15_7) AppleWebKit/537.36 (KHTML, like Gecko) draw.io/26.0.16 Chrome/132.0.6834.196 Electron/34.2.0 Safari/537.36" version="26.0.16">
  <diagram name="Page-1" id="tkDXlC4eXQZ4TSzwlk9F">
    <mxGraphModel dx="1114" dy="878" grid="1" gridSize="10" guides="1" tooltips="1" connect="1" arrows="1" fold="1" page="1" pageScale="1" pageWidth="827" pageHeight="1169" math="0" shadow="0">
      <root>
        <mxCell id="0" />
        <mxCell id="1" parent="0" />
        <mxCell id="Ka98ZUqkwhZ4JZip6EQp-14" value="" style="endArrow=block;html=1;rounded=0;endFill=1;strokeWidth=3;" edge="1" parent="1" source="Ka98ZUqkwhZ4JZip6EQp-33">
          <mxGeometry width="50" height="50" relative="1" as="geometry">
            <mxPoint x="110" y="65" as="sourcePoint" />
            <mxPoint x="430" y="65" as="targetPoint" />
          </mxGeometry>
        </mxCell>
        <mxCell id="Ka98ZUqkwhZ4JZip6EQp-17" value="" style="endArrow=none;html=1;rounded=0;strokeWidth=3;" edge="1" parent="1">
          <mxGeometry width="50" height="50" relative="1" as="geometry">
            <mxPoint x="140" y="85" as="sourcePoint" />
            <mxPoint x="140" y="45" as="targetPoint" />
          </mxGeometry>
        </mxCell>
        <mxCell id="Ka98ZUqkwhZ4JZip6EQp-18" value="" style="endArrow=none;html=1;rounded=0;strokeWidth=3;" edge="1" parent="1">
          <mxGeometry width="50" height="50" relative="1" as="geometry">
            <mxPoint x="170" y="85" as="sourcePoint" />
            <mxPoint x="170" y="45" as="targetPoint" />
          </mxGeometry>
        </mxCell>
        <mxCell id="Ka98ZUqkwhZ4JZip6EQp-19" value="" style="endArrow=none;html=1;rounded=0;strokeWidth=3;" edge="1" parent="1">
          <mxGeometry width="50" height="50" relative="1" as="geometry">
            <mxPoint x="360" y="85" as="sourcePoint" />
            <mxPoint x="360" y="45" as="targetPoint" />
          </mxGeometry>
        </mxCell>
        <mxCell id="Ka98ZUqkwhZ4JZip6EQp-20" value="" style="endArrow=block;html=1;rounded=0;endFill=1;strokeWidth=3;" edge="1" parent="1">
          <mxGeometry width="50" height="50" relative="1" as="geometry">
            <mxPoint x="110" y="145" as="sourcePoint" />
            <mxPoint x="430" y="145" as="targetPoint" />
          </mxGeometry>
        </mxCell>
        <mxCell id="Ka98ZUqkwhZ4JZip6EQp-21" value="" style="endArrow=none;html=1;rounded=0;strokeWidth=3;" edge="1" parent="1">
          <mxGeometry width="50" height="50" relative="1" as="geometry">
            <mxPoint x="147" y="165" as="sourcePoint" />
            <mxPoint x="147" y="125" as="targetPoint" />
          </mxGeometry>
        </mxCell>
        <mxCell id="Ka98ZUqkwhZ4JZip6EQp-24" value="" style="endArrow=none;html=1;rounded=0;strokeWidth=3;" edge="1" parent="1">
          <mxGeometry width="50" height="50" relative="1" as="geometry">
            <mxPoint x="390" y="85" as="sourcePoint" />
            <mxPoint x="390" y="45" as="targetPoint" />
          </mxGeometry>
        </mxCell>
        <mxCell id="Ka98ZUqkwhZ4JZip6EQp-25" value="ExecutorService 에 작업 제출" style="text;html=1;align=center;verticalAlign=middle;whiteSpace=wrap;rounded=0;" vertex="1" parent="1">
          <mxGeometry x="84" y="10" width="110" height="30" as="geometry" />
        </mxCell>
        <mxCell id="Ka98ZUqkwhZ4JZip6EQp-26" value="future.get() 호출" style="text;html=1;align=center;verticalAlign=middle;whiteSpace=wrap;rounded=0;" vertex="1" parent="1">
          <mxGeometry x="147" y="78" width="100" height="30" as="geometry" />
        </mxCell>
        <mxCell id="Ka98ZUqkwhZ4JZip6EQp-27" value="" style="endArrow=none;dashed=1;html=1;dashPattern=1 3;strokeWidth=2;rounded=0;" edge="1" parent="1">
          <mxGeometry width="50" height="50" relative="1" as="geometry">
            <mxPoint x="147" y="145" as="sourcePoint" />
            <mxPoint x="147" y="65" as="targetPoint" />
          </mxGeometry>
        </mxCell>
        <mxCell id="Ka98ZUqkwhZ4JZip6EQp-28" value="" style="endArrow=none;dashed=1;html=1;dashPattern=1 3;strokeWidth=2;rounded=0;endFill=1;startArrow=block;startFill=0;" edge="1" parent="1">
          <mxGeometry width="50" height="50" relative="1" as="geometry">
            <mxPoint x="360" y="68" as="sourcePoint" />
            <mxPoint x="360" y="148" as="targetPoint" />
          </mxGeometry>
        </mxCell>
        <mxCell id="Ka98ZUqkwhZ4JZip6EQp-30" value="결과 반환" style="edgeLabel;html=1;align=center;verticalAlign=middle;resizable=0;points=[];" vertex="1" connectable="0" parent="Ka98ZUqkwhZ4JZip6EQp-28">
          <mxGeometry y="3" relative="1" as="geometry">
            <mxPoint x="-2" y="-4" as="offset" />
          </mxGeometry>
        </mxCell>
        <mxCell id="Ka98ZUqkwhZ4JZip6EQp-29" value="결과 출력" style="text;html=1;align=center;verticalAlign=middle;whiteSpace=wrap;rounded=0;" vertex="1" parent="1">
          <mxGeometry x="365" y="20" width="60" height="30" as="geometry" />
        </mxCell>
        <mxCell id="Ka98ZUqkwhZ4JZip6EQp-31" value="" style="rounded=0;whiteSpace=wrap;html=1;fillColor=#3333FF;" vertex="1" parent="1">
          <mxGeometry x="147" y="135" width="213" height="20" as="geometry" />
        </mxCell>
        <mxCell id="Ka98ZUqkwhZ4JZip6EQp-32" value="작업 실행" style="text;html=1;align=center;verticalAlign=middle;whiteSpace=wrap;rounded=0;fontColor=#3333FF;fontStyle=1" vertex="1" parent="1">
          <mxGeometry x="223.5" y="153" width="60" height="30" as="geometry" />
        </mxCell>
        <mxCell id="Ka98ZUqkwhZ4JZip6EQp-34" value="" style="endArrow=none;html=1;rounded=0;endFill=1;strokeWidth=3;startFill=0;" edge="1" parent="1" target="Ka98ZUqkwhZ4JZip6EQp-33">
          <mxGeometry width="50" height="50" relative="1" as="geometry">
            <mxPoint x="110" y="65" as="sourcePoint" />
            <mxPoint x="430" y="65" as="targetPoint" />
          </mxGeometry>
        </mxCell>
        <mxCell id="Ka98ZUqkwhZ4JZip6EQp-33" value="" style="rounded=0;whiteSpace=wrap;html=1;fillColor=#3333FF;" vertex="1" parent="1">
          <mxGeometry x="170" y="54" width="190" height="20" as="geometry" />
        </mxCell>
        <mxCell id="Ka98ZUqkwhZ4JZip6EQp-35" value="결과 반환 시까지 스레드 블로킹" style="text;html=1;align=center;verticalAlign=middle;whiteSpace=wrap;rounded=0;fontColor=#3333FF;fontStyle=1" vertex="1" parent="1">
          <mxGeometry x="180" y="28" width="170" height="30" as="geometry" />
        </mxCell>
        <mxCell id="Ka98ZUqkwhZ4JZip6EQp-37" value="메인 스레드" style="text;html=1;align=center;verticalAlign=middle;whiteSpace=wrap;rounded=0;fontStyle=1;fontColor=#FF3333;" vertex="1" parent="1">
          <mxGeometry x="50" y="50" width="60" height="30" as="geometry" />
        </mxCell>
        <mxCell id="Ka98ZUqkwhZ4JZip6EQp-38" value="pool-1-thread-1" style="text;html=1;align=center;verticalAlign=middle;whiteSpace=wrap;rounded=0;fontStyle=1;fontColor=#FF3333;" vertex="1" parent="1">
          <mxGeometry x="20" y="130" width="90" height="30" as="geometry" />
        </mxCell>
      </root>
    </mxGraphModel>
  </diagram>
</mxfile>
